# xmcd
# 
# Track frame offsets:
#     150
#     14562
#     27537
#     55680
#     69085
#     82137
#     102837
#     115712
#     133440
#     146320
#     187240
#     203065
#     221813
#     235088
#     250730
#     275015
#     287590
#     298183
#     311455
#     326134
# 
# Disc length: 4675
# 
# Revision: 16
# Processed by: cddbd v1.5.2PL0 Copyright (c) Steve Scherf et al.
# Submitted via: fre:ac v1.0.17
# 
DISCID=3a124114
DTITLE=Fleetwood Mac - T H E   B E S T   O F   P E T E R   G R E E N ' S   F L E E T W O O D   M A C      2002
DYEAR=2002
DGENRE=Rhythm'n'Blues
TTITLE0=Albatross  1969
TTITLE1=Black Magic Woman  1968
TTITLE2=Need Your Love So Bad  (USA Version)  1968
TTITLE3=My Heart Beat Like A Hammer  1968
TTITLE4=Rollin' Man  1968
TTITLE5=The Green Manalishi (With The Two Pronged Crown)  1970
TTITLE6=Man Of The World  1969
TTITLE7=Something Inside of Me  1969
TTITLE8=Looking for Somebody  1968
TTITLE9=Oh well - Part 1 and Part 2  1969
TTITLE10=Rattlesnake Shake  1969
TTITLE11=Merry Go Round  1968
TTITLE12=I Loved Another Woman  1968
TTITLE13=Need Your Love Tonight  1968
TTITLE14=Worried Dream  1968
TTITLE15=Dragonfly  1971
TTITLE16=Stop Messin' Around  1969
TTITLE17=Shake Your Moneymaker  1968
TTITLE18=Chicken Shack  (Fleetwood Mac) - I'd Rather Go Blind  1969
TTITLE19=Chris Coco feat. Peter Green - Albatross  (Chris Coco mit Peter Green)  2002
EXTD=YEAR: 2002
EXTT0=
EXTT1=
EXTT2=
EXTT3=
EXTT4=
EXTT5=
EXTT6=
EXTT7=
EXTT8=
EXTT9=
EXTT10=
EXTT11=
EXTT12=
EXTT13=
EXTT14=
EXTT15=
EXTT16=
EXTT17=
EXTT18=
EXTT19=
PLAYORDER=
